<?xml version="1.0" encoding="UTF-8"?> <!-- Creator: CorelDRAW 2019 (64-Bit) --> <svg xmlns="http://www.w3.org/2000/svg" xmlns:xlink="http://www.w3.org/1999/xlink" xml:space="preserve" width="1600px" height="1600px" style="shape-rendering:geometricPrecision; text-rendering:geometricPrecision; image-rendering:optimizeQuality; fill-rule:evenodd; clip-rule:evenodd" viewBox="0 0 1600 1600"> <defs> <style type="text/css"> <![CDATA[ .fil0 {fill:white} ]]> </style> </defs> <g id="Слой_x0020_1"> <metadata id="CorelCorpID_0Corel-Layer"></metadata> <g id="_2094668514816"> <path class="fil0" d="M1496.03 1346.94l-3.12 0 0 12.5 -3.13 0 0 9.37 -3.12 0 0 9.38 -3.13 0 0 9.37 -3.12 0 0 6.25 -3.13 0 0 6.25 -3.12 0 0 6.25 -3.13 0 0 3.13 -3.12 0 0 6.25 -3.13 0 0 3.12 -3.12 0 0 6.25 -3.13 0 0 3.13 -3.12 0 0 3.12 -3.13 0 0 3.13 -3.12 0 0 3.12 -3.13 0 0 3.13 -3.12 0 0 3.12 -3.13 0 0 3.13 -3.12 0 0 3.12 -3.13 0 0 3.13 -3.12 0 0 3.12 -3.13 0 0 3.13 -3.12 0 0 3.12 -6.25 0 0 3.13 -3.13 0 0 3.12 -6.25 0 0 3.13 -3.12 0 0 3.12 -6.25 0 0 3.13 -6.25 0 0 3.12 -6.25 0 0 3.13 -9.38 0 0 3.12 -9.37 0 0 3.13 -9.38 0 0 3.12 -12.5 0 0 3.13 -21.87 0 0 3.12 -475 0 0 -650 650 0 0 475 -3.13 0 0 21.88zm-1396.87 -496.88l650 0 0 650 -475 0 0 -3.12 -21.88 0 0 -3.13 -12.49 0 0 -3.12 -12.5 0 0 -3.13 -6.25 0 0 -3.12 -9.38 0 0 -3.13 -6.25 0 0 -3.12 -6.25 0 0 -3.13 -6.25 0 0 -3.12 -3.12 0 0 -3.13 -6.25 0 0 -3.12 -3.13 0 0 -3.13 -6.25 0 0 -3.12 -3.12 0 0 -3.13 -3.13 0 0 -3.12 -3.12 0 0 -3.13 -3.13 0 0 -3.12 -3.12 0 0 -3.13 -3.13 0 0 -3.12 -3.12 0 0 -3.13 -3.13 0 0 -3.12 -3.12 0 0 -3.13 -3.13 0 0 -3.12 -3.12 0 0 -3.13 -3.13 0 0 -6.25 -3.12 0 0 -3.12 -3.13 0 0 -6.25 -3.12 0 0 -3.13 -3.13 0 0 -6.25 -3.12 0 0 -6.25 -3.13 0 0 -6.25 -3.12 0 0 -9.37 -3.13 0 0 -6.25 -3.12 0 0 -12.5 -3.13 0 0 -12.5 -3.12 0 0 -21.88 -3.13 0 0 -475zm750 -750l475 0 0 3.13 21.87 0 0 3.12 12.5 0 0 3.13 12.5 0 0 3.12 6.25 0 0 3.13 9.38 0 0 3.12 6.25 0 0 3.13 6.25 0 0 3.12 6.25 0 0 3.13 3.12 0 0 3.12 6.25 0 0 3.13 3.13 0 0 3.12 6.25 0 0 3.13 3.12 0 0 3.12 3.13 0 0 3.13 3.12 0 0 3.12 3.13 0 0 3.13 3.12 0 0 3.12 3.13 0 0 3.13 3.12 0 0 3.12 3.13 0 0 3.13 3.12 0 0 3.12 3.13 0 0 3.13 3.12 0 0 3.12 3.13 0 0 6.25 3.12 0 0 3.13 3.13 0 0 6.25 3.12 0 0 3.12 3.13 0 0 6.25 3.12 0 0 6.25 3.13 0 0 6.25 3.12 0 0 9.38 3.13 0 0 6.25 3.12 0 0 12.5 3.13 0 0 12.5 3.12 0 0 21.87 3.13 0 0 475 -650 0 0 -650zm-750 175l3.13 0 0 -21.87 3.12 0 0 -12.5 3.13 0 0 -12.5 3.12 0 0 -6.25 3.13 0 0 -9.38 3.12 0 0 -6.25 3.13 0 0 -6.25 3.12 0 0 -6.25 3.13 0 0 -3.12 3.12 0 0 -6.25 3.13 0 0 -3.13 3.12 0 0 -6.25 3.13 0 0 -3.12 3.12 0 0 -3.13 3.13 0 0 -3.12 3.12 0 0 -3.13 3.13 0 0 -3.12 3.12 0 0 -3.13 3.13 0 0 -3.12 3.12 0 0 -3.13 3.13 0 0 -3.12 3.12 0 0 -3.13 3.13 0 0 -3.12 3.12 0 0 -3.13 6.25 0 0 -3.12 3.13 0 0 -3.13 6.25 0 0 -3.12 3.12 0 0 -3.13 6.25 0 0 -3.12 6.25 0 0 -3.13 6.25 0 0 -3.12 9.38 0 0 -3.13 9.37 0 0 -3.12 9.38 0 0 -3.13 12.49 0 0 -3.12 21.88 0 0 -3.13 475 0 0 650 -650 0 0 -475zm153.12 -271.87l-18.74 0 0 3.12 -15.63 0 0 3.13 -9.37 0 0 3.12 -12.5 0 0 3.13 -9.38 0 0 3.12 -6.25 0 0 3.13 -6.25 0 0 3.12 -9.37 0 0 3.13 -6.25 0 0 3.12 -6.25 0 0 3.13 -3.13 0 0 3.12 -6.25 0 0 3.13 -6.25 0 0 3.12 -3.12 0 0 3.13 -6.25 0 0 3.12 -3.13 0 0 3.13 -6.25 0 0 3.12 -3.12 0 0 3.13 -3.13 0 0 3.12 -6.25 0 0 3.13 -3.12 0 0 3.12 -3.13 0 0 3.13 -3.12 0 0 3.12 -3.13 0 0 3.13 -3.12 0 0 3.12 -3.13 0 0 3.13 -3.12 0 0 3.12 -3.13 0 0 3.13 -3.12 0 0 3.12 -3.13 0 0 3.13 -3.12 0 0 3.12 -3.13 0 0 3.13 -3.12 0 0 3.12 -3.13 0 0 6.25 -3.12 0 0 3.13 -3.13 0 0 3.12 -3.12 0 0 6.25 -3.13 0 0 3.13 -3.12 0 0 6.25 -3.13 0 0 3.12 -3.12 0 0 6.25 -3.13 0 0 6.25 -3.12 0 0 3.13 -3.13 0 0 6.25 -3.12 0 0 6.25 -3.13 0 0 9.37 -3.12 0 0 6.25 -3.13 0 0 6.25 -3.12 0 0 9.38 -3.13 0 0 12.5 -3.12 0 0 9.37 -3.13 0 0 15.63 -3.12 0 0 18.75 -3.13 0 0 1093.75 3.13 0 0 18.75 3.12 0 0 15.62 3.13 0 0 9.38 3.12 0 0 12.5 3.13 0 0 6.25 3.12 0 0 9.37 3.13 0 0 6.25 3.12 0 0 9.38 3.13 0 0 6.25 3.12 0 0 6.25 3.13 0 0 3.12 3.12 0 0 6.25 3.13 0 0 6.25 3.12 0 0 3.13 3.13 0 0 6.25 3.12 0 0 3.12 3.13 0 0 6.25 3.12 0 0 3.13 3.13 0 0 3.12 3.12 0 0 6.25 3.13 0 0 3.13 3.12 0 0 3.12 3.13 0 0 3.13 3.12 0 0 3.12 3.13 0 0 3.13 3.12 0 0 3.12 3.13 0 0 3.13 3.12 0 0 3.12 3.13 0 0 3.13 3.12 0 0 3.12 3.13 0 0 3.13 3.12 0 0 3.12 3.13 0 0 3.13 3.12 0 0 3.12 6.25 0 0 3.13 3.13 0 0 3.12 3.12 0 0 3.13 6.25 0 0 3.12 3.13 0 0 3.13 6.25 0 0 3.12 3.12 0 0 3.13 6.25 0 0 3.12 6.25 0 0 3.13 3.13 0 0 3.12 6.25 0 0 3.13 6.25 0 0 3.12 9.37 0 0 3.13 6.25 0 0 3.12 9.38 0 0 3.13 6.25 0 0 3.12 12.5 0 0 3.13 9.37 0 0 3.12 15.63 0 0 3.13 18.74 0 0 3.12 1093.75 0 0 -3.12 18.75 0 0 -3.13 15.63 0 0 -3.12 12.5 0 0 -3.13 9.37 0 0 -3.12 6.25 0 0 -3.13 9.38 0 0 -3.12 6.25 0 0 -3.13 9.37 0 0 -3.12 6.25 0 0 -3.13 6.25 0 0 -3.12 3.13 0 0 -3.13 6.25 0 0 -3.12 6.25 0 0 -3.13 3.12 0 0 -3.12 6.25 0 0 -3.13 3.13 0 0 -3.12 6.25 0 0 -3.13 3.12 0 0 -3.12 3.13 0 0 -3.13 6.25 0 0 -3.12 3.12 0 0 -3.13 3.13 0 0 -3.12 3.12 0 0 -3.13 3.13 0 0 -3.12 3.12 0 0 -3.13 3.13 0 0 -3.12 3.12 0 0 -3.13 3.13 0 0 -3.12 3.12 0 0 -3.13 3.13 0 0 -3.12 3.12 0 0 -3.13 3.13 0 0 -3.12 3.12 0 0 -3.13 3.13 0 0 -6.25 3.12 0 0 -3.12 3.13 0 0 -3.13 3.12 0 0 -6.25 3.13 0 0 -3.12 3.12 0 0 -6.25 3.13 0 0 -3.13 3.12 0 0 -6.25 3.13 0 0 -6.25 3.12 0 0 -3.12 3.13 0 0 -6.25 3.12 0 0 -6.25 3.13 0 0 -9.38 3.12 0 0 -6.25 3.13 0 0 -9.37 3.12 0 0 -6.25 3.13 0 0 -12.5 3.12 0 0 -9.38 3.13 0 0 -15.62 3.12 0 0 -18.75 3.13 0 0 -1093.75 -3.13 0 0 -18.75 -3.12 0 0 -15.63 -3.13 0 0 -9.37 -3.12 0 0 -12.5 -3.13 0 0 -6.25 -3.12 0 0 -9.38 -3.13 0 0 -6.25 -3.12 0 0 -9.37 -3.13 0 0 -6.25 -3.12 0 0 -6.25 -3.13 0 0 -3.13 -3.12 0 0 -6.25 -3.13 0 0 -6.25 -3.12 0 0 -3.12 -3.13 0 0 -6.25 -3.12 0 0 -3.13 -3.13 0 0 -6.25 -3.12 0 0 -3.12 -3.13 0 0 -3.13 -3.12 0 0 -6.25 -3.13 0 0 -3.12 -3.12 0 0 -3.13 -3.13 0 0 -3.12 -3.12 0 0 -3.13 -3.13 0 0 -3.12 -3.12 0 0 -3.13 -3.13 0 0 -3.12 -3.12 0 0 -3.13 -3.13 0 0 -3.12 -3.12 0 0 -3.13 -3.13 0 0 -3.12 -3.12 0 0 -3.13 -3.13 0 0 -3.12 -3.12 0 0 -3.13 -6.25 0 0 -3.12 -3.13 0 0 -3.13 -3.12 0 0 -3.12 -6.25 0 0 -3.13 -3.13 0 0 -3.12 -6.25 0 0 -3.13 -3.12 0 0 -3.12 -6.25 0 0 -3.13 -6.25 0 0 -3.12 -3.13 0 0 -3.13 -6.25 0 0 -3.12 -6.25 0 0 -3.13 -9.37 0 0 -3.12 -6.25 0 0 -3.13 -9.38 0 0 -3.12 -6.25 0 0 -3.13 -9.37 0 0 -3.12 -12.5 0 0 -3.13 -15.63 0 0 -3.12 -18.75 0 0 -3.13 -1093.75 0 0 3.13z"></path> <polygon class="fil0" points="271.03,990.69 261.66,990.69 261.66,993.81 258.53,993.81 258.53,996.94 252.28,996.94 252.28,1000.06 249.16,1000.06 249.16,1003.19 246.03,1003.19 246.03,1009.44 242.91,1009.44 242.91,1012.56 239.79,1012.56 239.79,1021.94 236.66,1021.94 236.66,1053.19 239.79,1053.19 239.79,1062.56 242.91,1062.56 242.91,1065.69 246.03,1065.69 246.03,1068.81 249.16,1068.81 249.16,1075.06 252.28,1075.06 252.28,1078.19 258.53,1078.19 258.53,1084.44 261.66,1084.44 261.66,1087.56 267.91,1087.56 267.91,1093.81 274.16,1093.81 274.16,1100.06 277.28,1100.06 277.28,1103.19 283.53,1103.19 283.53,1109.44 286.66,1109.44 286.66,1112.56 289.78,1112.56 289.78,1115.69 296.03,1115.69 296.03,1118.81 299.16,1118.81 299.16,1125.06 305.41,1125.06 305.41,1131.31 308.53,1131.31 308.53,1134.44 311.66,1134.44 311.66,1137.56 317.91,1137.56 317.91,1140.69 321.03,1140.69 321.03,1143.81 324.16,1143.81 324.16,1146.94 327.28,1146.94 327.28,1150.06 330.41,1150.06 330.41,1153.19 333.53,1153.19 333.53,1156.31 336.66,1156.31 336.66,1159.44 339.78,1159.44 339.78,1162.56 342.91,1162.56 342.91,1165.69 346.03,1165.69 346.03,1168.81 349.16,1168.81 349.16,1175.06 346.03,1175.06 346.03,1178.19 342.91,1178.19 342.91,1181.31 339.78,1181.31 339.78,1184.44 336.66,1184.44 336.66,1187.56 333.53,1187.56 333.53,1190.69 330.41,1190.69 330.41,1193.81 327.28,1193.81 327.28,1196.94 324.16,1196.94 324.16,1200.06 321.03,1200.06 321.03,1203.19 317.91,1203.19 317.91,1206.31 314.78,1206.31 314.78,1209.44 311.66,1209.44 311.66,1212.56 308.53,1212.56 308.53,1215.69 305.41,1215.69 305.41,1218.81 302.28,1218.81 302.28,1221.94 299.16,1221.94 299.16,1225.06 296.03,1225.06 296.03,1228.19 292.91,1228.19 292.91,1231.31 289.78,1231.31 289.78,1234.44 286.66,1234.44 286.66,1237.56 283.53,1237.56 283.53,1240.69 280.41,1240.69 280.41,1243.81 277.28,1243.81 277.28,1246.94 274.16,1246.94 274.16,1250.06 271.03,1250.06 271.03,1253.19 267.91,1253.19 267.91,1256.31 264.78,1256.31 264.78,1259.44 261.66,1259.44 261.66,1262.56 258.53,1262.56 258.53,1265.69 255.41,1265.69 255.41,1268.81 252.28,1268.81 252.28,1271.94 249.16,1271.94 249.16,1275.06 246.03,1275.06 246.03,1281.31 242.91,1281.31 242.91,1284.44 239.79,1284.44 239.79,1293.81 236.66,1293.81 236.66,1325.06 239.79,1325.06 239.79,1334.44 242.91,1334.44 242.91,1337.56 246.03,1337.56 246.03,1343.81 249.16,1343.81 249.16,1346.94 252.28,1346.94 252.28,1350.06 258.53,1350.06 258.53,1353.19 264.78,1353.19 264.78,1356.31 271.03,1356.31 271.03,1359.44 302.28,1359.44 302.28,1356.31 308.53,1356.31 308.53,1353.19 314.78,1353.19 314.78,1350.06 317.91,1350.06 317.91,1346.94 321.03,1346.94 321.03,1343.81 324.16,1343.81 324.16,1340.69 327.28,1340.69 327.28,1337.56 330.41,1337.56 330.41,1334.44 333.53,1334.44 333.53,1331.31 336.66,1331.31 336.66,1328.19 339.78,1328.19 339.78,1325.06 342.91,1325.06 342.91,1321.94 346.03,1321.94 346.03,1318.81 349.16,1318.81 349.16,1315.69 352.28,1315.69 352.28,1312.56 355.41,1312.56 355.41,1309.44 358.53,1309.44 358.53,1306.31 361.66,1306.31 361.66,1303.19 364.78,1303.19 364.78,1300.06 367.91,1300.06 367.91,1296.94 371.03,1296.94 371.03,1293.81 374.16,1293.81 374.16,1290.69 377.28,1290.69 377.28,1287.56 380.41,1287.56 380.41,1284.44 383.53,1284.44 383.53,1281.31 386.66,1281.31 386.66,1278.19 389.78,1278.19 389.78,1275.06 392.91,1275.06 392.91,1271.94 396.03,1271.94 396.03,1268.81 399.16,1268.81 399.16,1265.69 402.28,1265.69 402.28,1262.56 405.41,1262.56 405.41,1259.44 408.53,1259.44 408.53,1256.31 411.66,1256.31 411.66,1253.19 414.78,1253.19 414.78,1250.06 417.91,1250.06 417.91,1246.94 424.16,1246.94 424.16,1250.06 430.41,1250.06 430.41,1256.31 433.53,1256.31 433.53,1259.44 439.78,1259.44 439.78,1265.69 442.91,1265.69 442.91,1268.81 449.16,1268.81 449.16,1275.06 452.28,1275.06 452.28,1278.19 458.53,1278.19 458.53,1284.44 461.66,1284.44 461.66,1287.56 467.91,1287.56 467.91,1290.69 471.03,1290.69 471.03,1296.94 474.16,1296.94 474.16,1300.06 477.28,1300.06 477.28,1303.19 480.41,1303.19 480.41,1306.31 483.53,1306.31 483.53,1309.44 486.66,1309.44 486.66,1312.56 492.91,1312.56 492.91,1315.69 496.03,1315.69 496.03,1321.94 499.16,1321.94 499.16,1325.06 505.41,1325.06 505.41,1331.31 508.53,1331.31 508.53,1334.44 511.66,1334.44 511.66,1337.56 514.78,1337.56 514.78,1340.69 517.91,1340.69 517.91,1343.81 524.16,1343.81 524.16,1346.94 527.28,1346.94 527.28,1350.06 530.41,1350.06 530.41,1353.19 536.66,1353.19 536.66,1356.31 542.91,1356.31 542.91,1359.44 574.16,1359.44 574.16,1356.31 580.41,1356.31 580.41,1353.19 586.66,1353.19 586.66,1350.06 589.78,1350.06 589.78,1346.94 592.91,1346.94 592.91,1343.81 596.03,1343.81 596.03,1340.69 599.16,1340.69 599.16,1337.56 602.28,1337.56 602.28,1331.31 605.41,1331.31 605.41,1325.06 608.53,1325.06 608.53,1293.81 605.41,1293.81 605.41,1287.56 602.28,1287.56 602.28,1281.31 599.16,1281.31 599.16,1278.19 596.03,1278.19 596.03,1275.06 592.91,1275.06 592.91,1268.81 589.78,1268.81 589.78,1265.69 586.66,1265.69 586.66,1262.56 583.53,1262.56 583.53,1259.44 580.41,1259.44 580.41,1256.31 577.28,1256.31 577.28,1253.19 574.16,1253.19 574.16,1250.06 571.03,1250.06 571.03,1246.94 567.91,1246.94 567.91,1243.81 564.78,1243.81 564.78,1240.69 561.66,1240.69 561.66,1237.56 558.53,1237.56 558.53,1234.44 555.41,1234.44 555.41,1231.31 552.28,1231.31 552.28,1228.19 549.16,1228.19 549.16,1225.06 546.03,1225.06 546.03,1221.94 542.91,1221.94 542.91,1218.81 539.78,1218.81 539.78,1215.69 536.66,1215.69 536.66,1212.56 533.53,1212.56 533.53,1209.44 530.41,1209.44 530.41,1206.31 527.28,1206.31 527.28,1203.19 524.16,1203.19 524.16,1200.06 521.03,1200.06 521.03,1196.94 517.91,1196.94 517.91,1193.81 514.78,1193.81 514.78,1190.69 511.66,1190.69 511.66,1187.56 508.53,1187.56 508.53,1184.44 505.41,1184.44 505.41,1181.31 502.28,1181.31 502.28,1178.19 499.16,1178.19 499.16,1175.06 496.03,1175.06 496.03,1168.81 499.16,1168.81 499.16,1165.69 502.28,1165.69 502.28,1162.56 505.41,1162.56 505.41,1159.44 508.53,1159.44 508.53,1156.31 511.66,1156.31 511.66,1153.19 514.78,1153.19 514.78,1150.06 517.91,1150.06 517.91,1146.94 521.03,1146.94 521.03,1143.81 524.16,1143.81 524.16,1140.69 527.28,1140.69 527.28,1137.56 530.41,1137.56 530.41,1134.44 533.53,1134.44 533.53,1131.31 536.66,1131.31 536.66,1128.19 539.78,1128.19 539.78,1125.06 542.91,1125.06 542.91,1121.94 546.03,1121.94 546.03,1118.81 549.16,1118.81 549.16,1115.69 552.28,1115.69 552.28,1112.56 555.41,1112.56 555.41,1109.44 558.53,1109.44 558.53,1106.31 561.66,1106.31 561.66,1103.19 564.78,1103.19 564.78,1100.06 567.91,1100.06 567.91,1096.94 571.03,1096.94 571.03,1093.81 574.16,1093.81 574.16,1090.69 577.28,1090.69 577.28,1087.56 580.41,1087.56 580.41,1084.44 583.53,1084.44 583.53,1081.31 586.66,1081.31 586.66,1078.19 589.78,1078.19 589.78,1075.06 592.91,1075.06 592.91,1071.94 596.03,1071.94 596.03,1068.81 599.16,1068.81 599.16,1065.69 602.28,1065.69 602.28,1059.44 605.41,1059.44 605.41,1053.19 608.53,1053.19 608.53,1021.94 605.41,1021.94 605.41,1015.69 602.28,1015.69 602.28,1009.44 599.16,1009.44 599.16,1003.19 596.03,1003.19 596.03,1000.06 592.91,1000.06 592.91,996.94 586.66,996.94 586.66,993.81 583.53,993.81 583.53,990.69 574.16,990.69 574.16,987.56 542.91,987.56 542.91,990.69 533.53,990.69 533.53,993.81 530.41,993.81 530.41,996.94 524.16,996.94 524.16,1000.06 521.03,1000.06 521.03,1003.19 517.91,1003.19 517.91,1006.31 514.78,1006.31 514.78,1009.44 511.66,1009.44 511.66,1012.56 508.53,1012.56 508.53,1015.69 505.41,1015.69 505.41,1018.81 502.28,1018.81 502.28,1021.94 499.16,1021.94 499.16,1025.06 496.03,1025.06 496.03,1028.19 492.91,1028.19 492.91,1031.31 489.78,1031.31 489.78,1034.44 486.66,1034.44 486.66,1037.56 483.53,1037.56 483.53,1040.69 480.41,1040.69 480.41,1043.81 477.28,1043.81 477.28,1046.94 474.16,1046.94 474.16,1050.06 471.03,1050.06 471.03,1053.19 467.91,1053.19 467.91,1056.31 464.78,1056.31 464.78,1059.44 461.66,1059.44 461.66,1062.56 458.53,1062.56 458.53,1065.69 455.41,1065.69 455.41,1068.81 452.28,1068.81 452.28,1071.94 449.16,1071.94 449.16,1075.06 446.03,1075.06 446.03,1078.19 442.91,1078.19 442.91,1081.31 439.78,1081.31 439.78,1084.44 436.66,1084.44 436.66,1087.56 433.53,1087.56 433.53,1090.69 430.41,1090.69 430.41,1093.81 427.28,1093.81 427.28,1096.94 424.16,1096.94 424.16,1100.06 421.03,1100.06 421.03,1096.94 417.91,1096.94 417.91,1093.81 414.78,1093.81 414.78,1090.69 411.66,1090.69 411.66,1087.56 408.53,1087.56 408.53,1084.44 405.41,1084.44 405.41,1081.31 402.28,1081.31 402.28,1078.19 399.16,1078.19 399.16,1075.06 396.03,1075.06 396.03,1071.94 392.91,1071.94 392.91,1068.81 389.78,1068.81 389.78,1065.69 386.66,1065.69 386.66,1062.56 383.53,1062.56 383.53,1059.44 380.41,1059.44 380.41,1056.31 377.28,1056.31 377.28,1053.19 374.16,1053.19 374.16,1050.06 371.03,1050.06 371.03,1046.94 367.91,1046.94 367.91,1043.81 364.78,1043.81 364.78,1040.69 361.66,1040.69 361.66,1037.56 358.53,1037.56 358.53,1034.44 355.41,1034.44 355.41,1031.31 352.28,1031.31 352.28,1028.19 349.16,1028.19 349.16,1025.06 346.03,1025.06 346.03,1021.94 342.91,1021.94 342.91,1018.81 339.78,1018.81 339.78,1015.69 336.66,1015.69 336.66,1012.56 333.53,1012.56 333.53,1009.44 330.41,1009.44 330.41,1006.31 327.28,1006.31 327.28,1003.19 324.16,1003.19 324.16,1000.06 317.91,1000.06 317.91,996.94 314.78,996.94 314.78,993.81 311.66,993.81 311.66,990.69 302.28,990.69 302.28,987.56 271.03,987.56 "></polygon> <polygon class="fil0" points="411.66,215.69 405.41,215.69 405.41,218.81 399.16,218.81 399.16,221.94 392.91,221.94 392.91,225.06 389.78,225.06 389.78,228.19 386.66,228.19 386.66,234.44 383.53,234.44 383.53,237.56 380.41,237.56 380.41,243.81 377.28,243.81 377.28,256.31 374.16,256.31 374.16,375.06 255.41,375.06 255.41,378.19 242.91,378.19 242.91,381.31 236.66,381.31 236.66,384.44 233.54,384.44 233.54,387.56 227.29,387.56 227.29,390.69 224.16,390.69 224.16,393.81 221.04,393.81 221.04,400.06 217.91,400.06 217.91,406.31 214.79,406.31 214.79,412.56 211.66,412.56 211.66,440.69 214.79,440.69 214.79,446.94 217.91,446.94 217.91,453.19 221.04,453.19 221.04,459.44 224.16,459.44 224.16,462.56 227.29,462.56 227.29,465.69 230.41,465.69 230.41,468.81 236.66,468.81 236.66,471.94 242.91,471.94 242.91,475.06 252.28,475.06 252.28,478.19 374.16,478.19 374.16,600.06 377.28,600.06 377.28,609.44 380.41,609.44 380.41,615.69 383.53,615.69 383.53,621.94 386.66,621.94 386.66,625.06 389.78,625.06 389.78,628.19 392.91,628.19 392.91,631.31 399.16,631.31 399.16,634.44 402.28,634.44 402.28,637.56 411.66,637.56 411.66,640.69 439.78,640.69 439.78,637.56 449.16,637.56 449.16,634.44 455.41,634.44 455.41,631.31 458.53,631.31 458.53,628.19 461.66,628.19 461.66,625.06 464.78,625.06 464.78,621.94 467.91,621.94 467.91,615.69 471.03,615.69 471.03,609.44 474.16,609.44 474.16,600.06 477.28,600.06 477.28,478.19 599.16,478.19 599.16,475.06 608.53,475.06 608.53,471.94 614.78,471.94 614.78,468.81 621.03,468.81 621.03,465.69 624.16,465.69 624.16,462.56 627.28,462.56 627.28,459.44 630.41,459.44 630.41,456.31 633.53,456.31 633.53,450.06 636.66,450.06 636.66,440.69 639.78,440.69 639.78,412.56 636.66,412.56 636.66,403.19 633.53,403.19 633.53,400.06 630.41,400.06 630.41,393.81 627.28,393.81 627.28,390.69 624.16,390.69 624.16,387.56 621.03,387.56 621.03,384.44 614.78,384.44 614.78,381.31 608.53,381.31 608.53,378.19 599.16,378.19 599.16,375.06 477.28,375.06 477.28,253.19 474.16,253.19 474.16,243.81 471.03,243.81 471.03,237.56 467.91,237.56 467.91,231.31 464.78,231.31 464.78,228.19 461.66,228.19 461.66,225.06 458.53,225.06 458.53,221.94 452.28,221.94 452.28,218.81 449.16,218.81 449.16,215.69 439.78,215.69 439.78,212.56 411.66,212.56 "></polygon> <polygon class="fil0" points="1027.28,378.19 1017.91,378.19 1017.91,381.31 1011.66,381.31 1011.66,384.44 1005.41,384.44 1005.41,387.56 1002.28,387.56 1002.28,390.69 999.16,390.69 999.16,393.81 996.03,393.81 996.03,396.94 992.91,396.94 992.91,403.19 989.78,403.19 989.78,409.44 986.66,409.44 986.66,425.06 983.53,425.06 983.53,428.19 986.66,428.19 986.66,443.81 989.78,443.81 989.78,450.06 992.91,450.06 992.91,456.31 996.03,456.31 996.03,459.44 999.16,459.44 999.16,462.56 1002.28,462.56 1002.28,465.69 1005.41,465.69 1005.41,468.81 1008.53,468.81 1008.53,471.94 1014.78,471.94 1014.78,475.06 1024.16,475.06 1024.16,478.19 1317.91,478.19 1317.91,475.06 1330.41,475.06 1330.41,471.94 1333.53,471.94 1333.53,468.81 1339.78,468.81 1339.78,465.69 1342.91,465.69 1342.91,462.56 1346.03,462.56 1346.03,459.44 1349.16,459.44 1349.16,456.31 1352.28,456.31 1352.28,450.06 1355.41,450.06 1355.41,443.81 1358.53,443.81 1358.53,409.44 1355.41,409.44 1355.41,403.19 1352.28,403.19 1352.28,396.94 1349.16,396.94 1349.16,393.81 1346.03,393.81 1346.03,390.69 1342.91,390.69 1342.91,387.56 1339.78,387.56 1339.78,384.44 1333.53,384.44 1333.53,381.31 1327.28,381.31 1327.28,378.19 1317.91,378.19 1317.91,375.06 1027.28,375.06 "></polygon> <polygon class="fil0" points="1030.41,1209.44 1017.91,1209.44 1017.91,1212.56 1011.66,1212.56 1011.66,1215.69 1005.41,1215.69 1005.41,1218.81 1002.28,1218.81 1002.28,1221.94 999.16,1221.94 999.16,1225.06 996.03,1225.06 996.03,1228.19 992.91,1228.19 992.91,1234.44 989.78,1234.44 989.78,1240.69 986.66,1240.69 986.66,1256.31 983.53,1256.31 983.53,1259.44 986.66,1259.44 986.66,1275.06 989.78,1275.06 989.78,1281.31 992.91,1281.31 992.91,1287.56 996.03,1287.56 996.03,1290.69 999.16,1290.69 999.16,1293.81 1002.28,1293.81 1002.28,1296.94 1005.41,1296.94 1005.41,1300.06 1008.53,1300.06 1008.53,1303.19 1014.78,1303.19 1014.78,1306.31 1024.16,1306.31 1024.16,1309.44 1321.03,1309.44 1321.03,1306.31 1330.41,1306.31 1330.41,1303.19 1336.66,1303.19 1336.66,1300.06 1339.78,1300.06 1339.78,1296.94 1342.91,1296.94 1342.91,1293.81 1346.03,1293.81 1346.03,1290.69 1349.16,1290.69 1349.16,1287.56 1352.28,1287.56 1352.28,1281.31 1355.41,1281.31 1355.41,1275.06 1358.53,1275.06 1358.53,1243.81 1355.41,1243.81 1355.41,1234.44 1352.28,1234.44 1352.28,1231.31 1349.16,1231.31 1349.16,1225.06 1346.03,1225.06 1346.03,1221.94 1342.91,1221.94 1342.91,1218.81 1339.78,1218.81 1339.78,1215.69 1333.53,1215.69 1333.53,1212.56 1327.28,1212.56 1327.28,1209.44 1314.78,1209.44 1314.78,1206.31 1030.41,1206.31 "></polygon> <polygon class="fil0" points="1036.66,1037.56 1017.91,1037.56 1017.91,1040.69 1011.66,1040.69 1011.66,1043.81 1005.41,1043.81 1005.41,1046.94 1002.28,1046.94 1002.28,1050.06 999.16,1050.06 999.16,1053.19 996.03,1053.19 996.03,1056.31 992.91,1056.31 992.91,1062.56 989.78,1062.56 989.78,1068.81 986.66,1068.81 986.66,1084.44 983.53,1084.44 983.53,1087.56 986.66,1087.56 986.66,1103.19 989.78,1103.19 989.78,1112.56 992.91,1112.56 992.91,1115.69 996.03,1115.69 996.03,1118.81 999.16,1118.81 999.16,1125.06 1005.41,1125.06 1005.41,1128.19 1008.53,1128.19 1008.53,1131.31 1014.78,1131.31 1014.78,1134.44 1021.03,1134.44 1021.03,1137.56 1321.03,1137.56 1321.03,1134.44 1330.41,1134.44 1330.41,1131.31 1336.66,1131.31 1336.66,1128.19 1339.78,1128.19 1339.78,1125.06 1342.91,1125.06 1342.91,1121.94 1346.03,1121.94 1346.03,1118.81 1349.16,1118.81 1349.16,1115.69 1352.28,1115.69 1352.28,1109.44 1355.41,1109.44 1355.41,1103.19 1358.53,1103.19 1358.53,1071.94 1355.41,1071.94 1355.41,1062.56 1352.28,1062.56 1352.28,1059.44 1349.16,1059.44 1349.16,1053.19 1346.03,1053.19 1346.03,1050.06 1342.91,1050.06 1342.91,1046.94 1336.66,1046.94 1336.66,1043.81 1333.53,1043.81 1333.53,1040.69 1327.28,1040.69 1327.28,1037.56 1308.53,1037.56 1308.53,1034.44 1036.66,1034.44 "></polygon> </g> </g> </svg> 